<svg id="Layer_1" data-name="Layer 1" xmlns="http://www.w3.org/2000/svg" viewBox="0 0 961.98 192.39"><defs><style>.cls-1{fill:#231f20;}.cls-2{fill:#e00007;}.cls-3{fill:#ec666a;}.cls-4{fill:#f9cccd;}.cls-5{fill:#a80005;}.cls-6{fill:#e63339;}.cls-7{fill:#fff;}</style></defs><title>andxet</title><path class="cls-1" d="M326.1,203.79a17.51,17.51,0,0,1-12.38-29.89L464.6,23a17.51,17.51,0,1,1,24.76,24.76L338.48,198.66A17.46,17.46,0,0,1,326.1,203.79Z" transform="translate(-8.33 -11.4)"/><path class="cls-2" d="M326.1,203.79a17.51,17.51,0,0,1-12.38-29.89L464.6,23a17.51,17.51,0,1,1,24.76,24.76L338.48,198.66A17.46,17.46,0,0,1,326.1,203.79Z" transform="translate(-8.33 -11.4)"/><path class="cls-3" d="M345.8,108.17a17.51,17.51,0,0,1-12.38-29.89L377.6,34.1a17.51,17.51,0,0,1,24.76,24.76L358.18,103A17.46,17.46,0,0,1,345.8,108.17Z" transform="translate(-8.33 -11.4)"/><circle class="cls-4" cx="319.89" cy="19.42" r="19.42"/><path class="cls-5" d="M421.07,186.21a17.51,17.51,0,0,1-12.38-29.89l44.18-44.18a17.51,17.51,0,1,1,24.76,24.76l-44.18,44.18A17.46,17.46,0,0,1,421.07,186.21Z" transform="translate(-8.33 -11.4)"/><circle class="cls-6" cx="474.49" cy="172.97" r="19.42"/><path class="cls-7" d="M59.8,101.89q5.11-.66,6.85-4.28a13.16,13.16,0,0,0,1-5.71q0-7.62-5.39-11.05T46.81,77.41q-11.61,0-16.46,6.3-2.72,3.48-3.54,10.36H12.95q0.41-16.38,10.58-22.79a43.33,43.33,0,0,1,23.6-6.41q15.57,0,25.29,5.94t9.64,18.48v50.89a6.51,6.51,0,0,0,.95,3.71q0.95,1.4,4,1.4,1,0,2.23-.12t2.64-.37v11A41.42,41.42,0,0,1,86.6,157a38.65,38.65,0,0,1-4.95.25q-7.67,0-11.13-5.44A21,21,0,0,1,68,143.64a37.77,37.77,0,0,1-13,10.31,40.33,40.33,0,0,1-18.72,4.37q-12.29,0-20.08-7.45A24.74,24.74,0,0,1,8.33,132.2q0-12.27,7.67-19t20.12-8.32ZM28.54,142a17.46,17.46,0,0,0,11.13,3.7,33.91,33.91,0,0,0,15.18-3.62q12.37-6,12.37-19.68V110.46a25.27,25.27,0,0,1-7,2.9,58.88,58.88,0,0,1-8.4,1.65l-9,1.15q-8.07,1.07-12.13,3.38-6.89,3.87-6.89,12.34A12.19,12.19,0,0,0,28.54,142Z" transform="translate(-8.33 -11.4)"/><path class="cls-7" d="M106.39,67h14.1V79.55q6.27-7.75,13.28-11.13A35.41,35.41,0,0,1,149.36,65q18.8,0,25.4,13.11,3.63,7.18,3.63,20.54v56.66H163.3V99.68q0-8.08-2.39-13-4-8.25-14.35-8.25a29.26,29.26,0,0,0-8.66,1.07,22.3,22.3,0,0,0-10.72,7.26,21.86,21.86,0,0,0-4.82,9,60.78,60.78,0,0,0-1.11,13.32v46.27H106.39V67Z" transform="translate(-8.33 -11.4)"/><path class="cls-7" d="M248.86,69.74q3.94,2.47,9,8.66V33.78h14.27V155.35H258.72V143.06q-5.18,8.17-12.24,11.79a34.94,34.94,0,0,1-16.19,3.63q-14.71,0-25.47-12.41t-10.76-33q0-19.3,9.82-33.44t28.06-14.14Q242,65.45,248.86,69.74ZM215.72,136q6,9.57,19.2,9.57,10.26,0,16.86-8.87t6.61-25.44q0-16.74-6.81-24.78t-16.82-8A22.16,22.16,0,0,0,216.67,87q-6.93,8.58-6.93,25.24Q209.73,126.4,215.72,136Z" transform="translate(-8.33 -11.4)"/><path class="cls-7" d="M577.48,69.45a33.48,33.48,0,0,1,13.36,11.42,39.58,39.58,0,0,1,5.9,15.59q1.31,6.1,1.31,19.46H533.81q0.41,13.48,6.3,21.63t18.25,8.15q11.54,0,18.41-7.7a26.25,26.25,0,0,0,5.45-10.36h14.6A30.75,30.75,0,0,1,593,138.48a39,39,0,0,1-7.27,9.77,34.26,34.26,0,0,1-16.62,8.91,50.17,50.17,0,0,1-12,1.32,36.86,36.86,0,0,1-27.78-12q-11.39-12-11.39-33.61,0-21.28,11.48-34.56t30-13.28A39.86,39.86,0,0,1,577.48,69.45Zm5.32,34.68q-0.9-9.65-4.17-15.42Q572.58,78,558.43,78a22.31,22.31,0,0,0-17,7.38q-6.87,7.38-7.28,18.76H582.8Z" transform="translate(-8.33 -11.4)"/><path class="cls-7" d="M619.83,42.36h15V67h14.1V79.14h-14.1v57.65q0,4.62,3.13,6.19a13.31,13.31,0,0,0,5.77.91q1.07,0,2.31-.05t2.89-.28v11.79a33.17,33.17,0,0,1-5.32,1.07,50.73,50.73,0,0,1-6,.33q-10.39,0-14.1-5.32t-3.71-13.81V79.14h-12V67h12V42.36Z" transform="translate(-8.33 -11.4)"/><path class="cls-7" d="M667.34,137.37h17.24v18H667.34v-18Z" transform="translate(-8.33 -11.4)"/><path class="cls-7" d="M759.25,69.74q3.94,2.47,9,8.66V33.78h14.27V155.35H769.11V143.06q-5.18,8.17-12.24,11.79a34.94,34.94,0,0,1-16.19,3.63q-14.71,0-25.47-12.41t-10.76-33q0-19.3,9.82-33.44t28.06-14.14Q752.43,65.45,759.25,69.74ZM726.11,136q6,9.57,19.2,9.57,10.26,0,16.86-8.87t6.61-25.44q0-16.74-6.81-24.78t-16.82-8A22.16,22.16,0,0,0,727.05,87q-6.93,8.58-6.93,25.24Q720.12,126.4,726.11,136Z" transform="translate(-8.33 -11.4)"/><path class="cls-7" d="M859.22,69.45a33.48,33.48,0,0,1,13.36,11.42,39.58,39.58,0,0,1,5.9,15.59q1.31,6.1,1.31,19.46H815.54q0.41,13.48,6.3,21.63t18.25,8.15q11.54,0,18.41-7.7A26.25,26.25,0,0,0,864,127.64h14.6a30.75,30.75,0,0,1-3.84,10.85,39,39,0,0,1-7.27,9.77,34.26,34.26,0,0,1-16.62,8.91,50.17,50.17,0,0,1-12,1.32,36.86,36.86,0,0,1-27.78-12q-11.39-12-11.39-33.61,0-21.28,11.48-34.56T841.1,65A39.86,39.86,0,0,1,859.22,69.45Zm5.32,34.68q-0.9-9.65-4.17-15.42Q854.31,78,840.16,78a22.31,22.31,0,0,0-17,7.38q-6.87,7.38-7.28,18.76h48.66Z" transform="translate(-8.33 -11.4)"/><path class="cls-7" d="M905.89,67l23.59,71.92L954.06,67h16.25l-33.25,88.33H921.23L888.66,67h17.24Z" transform="translate(-8.33 -11.4)"/></svg>